<svg width="225" height="50" viewBox="0 0 225 50" fill="none" xmlns="http://www.w3.org/2000/svg">
<g clip-path="url(#clip0)">
<path d="M0.233955 25.5236H8.68995V48.7275H13.6059V25.5236H22.0619V21.3691H0.233955V25.5236Z" fill="white"/>
<path d="M23.9053 48.7275H28.7411V36.6646C28.7411 34.0597 30.7048 32.2162 33.3632 32.2162C34.178 32.2162 35.1933 32.3632 35.6074 32.4968V28.0483C35.1666 27.9681 34.4051 27.9148 33.8708 27.9148C31.5197 27.9148 29.556 29.2506 28.8079 31.6285H28.5941V28.2087H23.9053V48.7275Z" fill="white"/>
<path d="M51.9049 40.0978C51.9049 43.2237 49.674 44.7733 47.5366 44.7733C45.2122 44.7733 43.6626 43.1302 43.6626 40.5253V28.2087H38.8268V41.2734C38.8268 46.2027 41.6321 48.9946 45.6664 48.9946C48.7389 48.9946 50.903 47.3783 51.8381 45.0806H52.0518V48.7275H56.7407V28.2087H51.9049V40.0978Z" fill="white"/>
<path d="M70.7939 49.1282C75.5763 49.1282 78.8625 46.7905 79.7175 43.2237L75.2023 42.7161C74.5477 44.4527 72.9447 45.3611 70.8607 45.3611C67.7348 45.3611 65.6642 43.3039 65.6241 39.7906H79.9179V38.3078C79.9179 31.1075 75.5897 27.9415 70.5401 27.9415C64.6623 27.9415 60.8284 32.2563 60.8284 38.5883C60.8284 45.0271 64.6089 49.1282 70.7939 49.1282V49.1282ZM65.6375 36.5311C65.7844 33.9128 67.7214 31.7086 70.6069 31.7086C73.3855 31.7086 75.2557 33.7391 75.2824 36.5311H65.6375Z" fill="white"/>
<path d="M93.5569 48.7275H104.631C110.896 48.7275 113.969 45.5348 113.969 41.2734C113.969 37.1322 111.03 34.7009 108.118 34.554V34.2868C110.79 33.659 112.9 31.7888 112.9 28.4625C112.9 24.3881 109.961 21.3691 104.03 21.3691H93.5569V48.7275ZM98.513 44.5863V36.5711H103.977C107.036 36.5711 108.933 38.4413 108.933 40.886C108.933 43.0634 107.437 44.5863 103.843 44.5863H98.513ZM98.513 33.0044V25.4568H103.522C106.435 25.4568 107.944 26.993 107.944 29.1037C107.944 31.5082 105.994 33.0044 103.416 33.0044H98.513Z" fill="white"/>
<path d="M127.154 49.1282C131.936 49.1282 135.222 46.7905 136.077 43.2237L131.562 42.7161C130.908 44.4527 129.305 45.3611 127.221 45.3611C124.095 45.3611 122.024 43.3039 121.984 39.7906H136.278V38.3078C136.278 31.1075 131.95 27.9415 126.9 27.9415C121.022 27.9415 117.188 32.2563 117.188 38.5883C117.188 45.0271 120.969 49.1282 127.154 49.1282V49.1282ZM121.997 36.5311C122.144 33.9128 124.081 31.7086 126.967 31.7086C129.745 31.7086 131.616 33.7391 131.642 36.5311H121.997Z" fill="white"/>
<path d="M146.27 49.1416C149.489 49.1416 151.413 47.6321 152.295 45.9088H152.455V48.7275H157.104V34.9948C157.104 29.5712 152.682 27.9415 148.768 27.9415C144.453 27.9415 141.14 29.8651 140.072 33.6055L144.587 34.2467C145.068 32.8441 146.43 31.6418 148.795 31.6418C151.039 31.6418 152.268 32.7907 152.268 34.8078V34.888C152.268 36.2773 150.812 36.3441 147.192 36.7315C143.211 37.159 139.404 38.3479 139.404 42.9699C139.404 47.0042 142.356 49.1416 146.27 49.1416V49.1416ZM147.526 45.5882C145.508 45.5882 144.066 44.6665 144.066 42.8898C144.066 41.0329 145.682 40.2581 147.846 39.9509C149.115 39.7772 151.653 39.4566 152.281 38.949V41.3669C152.281 43.6512 150.438 45.5882 147.526 45.5882Z" fill="white"/>
<path d="M170.93 49.1282C176.086 49.1282 179.373 46.0691 179.72 41.7142H175.098C174.684 43.9184 173.094 45.1874 170.97 45.1874C167.951 45.1874 166.001 42.6627 166.001 38.4681C166.001 34.3269 167.991 31.8422 170.97 31.8422C173.294 31.8422 174.724 33.3384 175.098 35.3154H179.72C179.386 30.867 175.913 27.9415 170.903 27.9415C164.892 27.9415 161.098 32.283 161.098 38.5482C161.098 44.76 164.798 49.1282 170.93 49.1282V49.1282Z" fill="white"/>
<path d="M192.651 49.1282C198.662 49.1282 202.483 44.8935 202.483 38.5482C202.483 32.1895 198.662 27.9415 192.651 27.9415C186.64 27.9415 182.819 32.1895 182.819 38.5482C182.819 44.8935 186.64 49.1282 192.651 49.1282ZM192.678 45.2542C189.351 45.2542 187.722 42.2886 187.722 38.5349C187.722 34.7811 189.351 31.7754 192.678 31.7754C195.95 31.7754 197.58 34.7811 197.58 38.5349C197.58 42.2886 195.95 45.2542 192.678 45.2542Z" fill="white"/>
<path d="M211.406 36.7047C211.406 33.7391 213.196 32.0292 215.748 32.0292C218.246 32.0292 219.742 33.6723 219.742 36.4109V48.7275H224.578V35.6628C224.591 30.7468 221.786 27.9415 217.551 27.9415C214.479 27.9415 212.368 29.4109 211.433 31.6953H211.193V28.2087H206.571V48.7275H211.406V36.7047Z" fill="white"/>
<path d="M79.562 0H0V9.97494H79.562V0Z" fill="#FFC107"/>
</g>
<defs>
<clipPath id="clip0">
<rect width="224.578" height="49.1416" fill="white"/>
</clipPath>
</defs>
</svg>
